<svg width="975" height="1024" viewBox="0 0 975 1024" fill="none" xmlns="http://www.w3.org/2000/svg">
<g opacity="0.65">
<rect x="782" y="2" width="191" height="166.667" rx="18" stroke="#FCFAFA" stroke-width="4"/>
<rect x="782" y="172.667" width="191" height="166.667" rx="18" stroke="#FCFAFA" stroke-width="4"/>
<rect x="392" y="172.667" width="191" height="166.667" rx="18" stroke="#FCFAFA" stroke-width="4"/>
<rect x="2" y="172.667" width="191" height="166.667" rx="18" stroke="#FCFAFA" stroke-width="4"/>
<rect x="782" y="343.333" width="191" height="166.667" rx="18" stroke="#FCFAFA" stroke-width="4"/>
<rect x="392" y="343.333" width="191" height="166.667" rx="18" stroke="#FCFAFA" stroke-width="4"/>
<rect x="2" y="343.333" width="191" height="166.667" rx="18" stroke="#FCFAFA" stroke-width="4"/>
<rect x="782" y="514" width="191" height="166.667" rx="18" stroke="#FCFAFA" stroke-width="4"/>
<rect x="392" y="514" width="191" height="166.667" rx="18" stroke="#FCFAFA" stroke-width="4"/>
<rect x="2" y="514" width="191" height="166.667" rx="18" stroke="#FCFAFA" stroke-width="4"/>
<rect x="782" y="684.667" width="191" height="166.667" rx="18" stroke="#FCFAFA" stroke-width="4"/>
<rect x="392" y="684.667" width="191" height="166.667" rx="18" stroke="#FCFAFA" stroke-width="4"/>
<rect x="2" y="684.667" width="191" height="166.667" rx="18" stroke="#FCFAFA" stroke-width="4"/>
<rect x="782" y="855.333" width="191" height="166.667" rx="18" stroke="#FCFAFA" stroke-width="4"/>
<rect x="392" y="855.333" width="191" height="166.667" rx="18" stroke="#FCFAFA" stroke-width="4"/>
<rect x="2" y="855.333" width="191" height="166.667" rx="18" stroke="#FCFAFA" stroke-width="4"/>
<rect x="587" y="2" width="191" height="166.667" rx="18" stroke="#FCFAFA" stroke-width="4"/>
<rect x="392" y="2" width="191" height="166.667" rx="18" stroke="#FCFAFA" stroke-width="4"/>
<rect x="197" y="2" width="191" height="166.667" rx="18" stroke="#FCFAFA" stroke-width="4"/>
<rect x="2" y="2" width="191" height="166.667" rx="18" stroke="#FCFAFA" stroke-width="4"/>
<rect x="587" y="172.667" width="191" height="166.667" rx="18" stroke="#FCFAFA" stroke-width="4"/>
<rect x="197" y="172.667" width="191" height="166.667" rx="18" stroke="#FCFAFA" stroke-width="4"/>
<rect x="587" y="343.333" width="191" height="166.667" rx="18" stroke="#FCFAFA" stroke-width="4"/>
<rect x="197" y="343.333" width="191" height="166.667" rx="18" stroke="#FCFAFA" stroke-width="4"/>
<rect x="587" y="514" width="191" height="166.667" rx="18" stroke="#FCFAFA" stroke-width="4"/>
<rect x="197" y="514" width="191" height="166.667" rx="18" stroke="#FCFAFA" stroke-width="4"/>
<rect x="587" y="684.667" width="191" height="166.667" rx="18" stroke="#FCFAFA" stroke-width="4"/>
<rect x="197" y="684.667" width="191" height="166.667" rx="18" stroke="#FCFAFA" stroke-width="4"/>
<rect x="587" y="855.333" width="191" height="166.667" rx="18" stroke="#FCFAFA" stroke-width="4"/>
<rect x="197" y="855.333" width="191" height="166.667" rx="18" stroke="#FCFAFA" stroke-width="4"/>
</g>
</svg>
